<svg width="32" height="21" viewBox="0 0 32 21" fill="none" xmlns="http://www.w3.org/2000/svg">
<path d="M28 0.13623H4C2.93913 0.13623 1.92172 0.514669 1.17157 1.1883C0.421424 1.86193 0 2.77557 0 3.72822V17.1982C0 18.1509 0.421424 19.0645 1.17157 19.7381C1.92172 20.4118 2.93913 20.7902 4 20.7902H28C29.0609 20.7902 30.0783 20.4118 30.8284 19.7381C31.5786 19.0645 32 18.1509 32 17.1982V3.72822C32 2.77557 31.5786 1.86193 30.8284 1.1883C30.0783 0.514669 29.0609 0.13623 28 0.13623ZM9.7 13.3458L5.7 16.9378C5.50493 17.0585 5.26848 17.1131 5.03276 17.0919C4.79704 17.0706 4.57736 16.975 4.41287 16.8219C4.24839 16.6688 4.14978 16.4682 4.1346 16.2559C4.11942 16.0436 4.18867 15.8334 4.33 15.6626L8.33 12.0706C8.51736 11.9034 8.77082 11.8095 9.035 11.8095C9.29919 11.8095 9.55264 11.9034 9.74001 12.0706C9.83116 12.1565 9.90248 12.2576 9.94984 12.3684C9.99721 12.4791 10.0197 12.5971 10.016 12.7157C10.0122 12.8342 9.98241 12.951 9.92818 13.0591C9.87395 13.1673 9.79639 13.2647 9.7 13.3458ZM16 14.5042C15.7663 14.5046 15.5399 14.4315 15.36 14.2977L4.36 6.21567C4.24944 6.14369 4.15646 6.05212 4.08681 5.94664C4.01716 5.84115 3.97231 5.72397 3.95502 5.60232C3.93773 5.48068 3.94838 5.35714 3.9863 5.23932C4.02421 5.12151 4.08859 5.01193 4.17548 4.91732C4.26236 4.8227 4.36991 4.74508 4.49149 4.68923C4.61306 4.63337 4.74609 4.60046 4.88237 4.59254C5.01865 4.58462 5.15529 4.60184 5.28387 4.64316C5.41246 4.68447 5.53026 4.74901 5.63 4.83277L16 12.4478L26.33 4.83277C26.4317 4.75767 26.5488 4.70134 26.6748 4.667C26.8008 4.63266 26.9331 4.62098 27.0641 4.63266C27.1951 4.64434 27.3222 4.67914 27.4382 4.73505C27.5542 4.79096 27.6568 4.86689 27.74 4.95848C27.9058 5.14234 27.9841 5.37753 27.9579 5.61293C27.9316 5.84833 27.8031 6.06493 27.6 6.21567L16.6 14.2977C16.4308 14.4239 16.2199 14.4965 16 14.5042ZM27.7 16.9378C27.5126 17.105 27.2592 17.1989 26.995 17.1989C26.7308 17.1989 26.4774 17.105 26.29 16.9378L22.29 13.3458C22.1963 13.2623 22.1219 13.163 22.0711 13.0536C22.0203 12.9441 21.9942 12.8268 21.9942 12.7082C21.9942 12.5897 22.0203 12.4723 22.0711 12.3629C22.1219 12.2534 22.1963 12.1541 22.29 12.0706C22.4774 11.9034 22.7308 11.8095 22.995 11.8095C23.2592 11.8095 23.5126 11.9034 23.7 12.0706L27.7 15.6626C27.7937 15.7461 27.8681 15.8454 27.9189 15.9548C27.9697 16.0643 27.9958 16.1817 27.9958 16.3002C27.9958 16.4187 27.9697 16.5361 27.9189 16.6456C27.8681 16.755 27.7937 16.8543 27.7 16.9378Z" fill="#535151"/>
</svg>
