<svg width="31" height="29" viewBox="0 0 31 29" fill="none" xmlns="http://www.w3.org/2000/svg">
<path d="M25.2103 18.0446C24.9925 17.8184 24.723 17.637 24.4202 17.5126C24.1174 17.3882 23.7882 17.3239 23.4553 17.3239C23.1223 17.3239 22.7932 17.3882 22.4903 17.5126C22.1875 17.637 21.918 17.8184 21.7002 18.0446C20.8802 18.772 20.0603 19.5084 19.2503 20.2537C19.1741 20.3467 19.0609 20.4099 18.9343 20.4299C18.8077 20.45 18.6773 20.4255 18.5703 20.3615C18.0403 20.1011 17.4703 19.8945 16.9603 19.6072C14.6199 18.2451 12.5455 16.5461 10.8203 14.5784C9.91951 13.6248 9.17528 12.5603 8.61025 11.4174C8.54881 11.3226 8.5281 11.211 8.55205 11.1034C8.576 10.9959 8.64295 10.9 8.74025 10.8337C9.56025 10.1153 10.3602 9.38793 11.1702 8.65158C11.4346 8.45439 11.6473 8.20732 11.7934 7.92795C11.9394 7.64859 12.0151 7.34379 12.0151 7.03519C12.0151 6.72659 11.9394 6.42176 11.7934 6.1424C11.6473 5.86303 11.4346 5.61597 11.1702 5.41878L9.24025 3.68565C8.58025 3.09297 7.92025 2.49131 7.24025 1.88965C7.02066 1.66606 6.75061 1.48699 6.44802 1.36433C6.14543 1.24167 5.81724 1.17822 5.48525 1.17822C5.15326 1.17822 4.82507 1.24167 4.52248 1.36433C4.21989 1.48699 3.94983 1.66606 3.73024 1.88965C2.90024 2.61703 2.11024 3.37133 1.26024 4.08973C0.511902 4.72353 0.0642502 5.59187 0.0102587 6.51434C-0.0609777 8.0272 0.239468 9.53561 0.890264 10.9325C2.13754 13.8364 3.93392 16.525 6.20025 18.8798C9.18318 22.0964 12.8958 24.7047 17.0903 26.5307C18.9542 27.4072 20.9939 27.9414 23.0903 28.1022C23.7925 28.1731 24.5034 28.0928 25.1642 27.8679C25.825 27.643 26.4167 27.2801 26.8902 26.8091C27.5903 26.0997 28.3803 25.4531 29.1303 24.7796C29.3896 24.5815 29.5979 24.3352 29.7408 24.0576C29.8836 23.7801 29.9576 23.478 29.9576 23.1722C29.9576 22.8664 29.8836 22.5643 29.7408 22.2868C29.5979 22.0093 29.3896 21.7629 29.1303 21.5648C27.8369 20.3914 26.5303 19.218 25.2103 18.0446Z" fill="#535151"/>
<path d="M30.4003 12.917C27.7965 7.45527 22.9358 3.11291 16.8403 0.803052C16.5948 0.720759 16.3231 0.728265 16.0837 0.823989C15.8444 0.919713 15.6564 1.09599 15.5603 1.31489C15.5079 1.42443 15.4803 1.54224 15.4792 1.66145C15.478 1.78066 15.5033 1.89888 15.5536 2.00922C15.6038 2.11955 15.6781 2.21978 15.7719 2.30409C15.8658 2.3884 15.9774 2.45509 16.1003 2.50025C21.7191 4.63195 26.1994 8.63597 28.6003 13.6714C28.7076 13.8849 28.9036 14.0523 29.1465 14.1379C29.3894 14.2234 29.6599 14.2204 29.9003 14.1293C30.0234 14.081 30.1343 14.0108 30.2266 13.923C30.3188 13.8353 30.3904 13.7317 30.4371 13.6186C30.4837 13.5054 30.5045 13.385 30.4982 13.2645C30.4919 13.1439 30.4586 13.0258 30.4003 12.917Z" fill="#535151"/>
<path d="M15.5802 7.37638C18.9861 8.66464 21.7032 11.0884 23.1603 14.1383C23.2376 14.2888 23.3599 14.4171 23.5134 14.509C23.667 14.6009 23.8458 14.6529 24.0303 14.6592C24.1653 14.6583 24.2984 14.6307 24.4202 14.5783C24.6502 14.4772 24.8282 14.3006 24.9175 14.0851C25.0068 13.8696 25.0006 13.6315 24.9002 13.4199C23.2486 9.95729 20.1657 7.20496 16.3002 5.74205C16.0622 5.66617 15.801 5.67399 15.5691 5.76394C15.3373 5.8539 15.1519 6.01929 15.0502 6.22695C14.9562 6.44292 14.9589 6.68318 15.0577 6.89743C15.1565 7.11168 15.3437 7.28331 15.5802 7.37638Z" fill="#535151"/>
</svg>
