<svg width="430" height="159" viewBox="0 0 430 159" fill="none" xmlns="http://www.w3.org/2000/svg">
<path d="M8.48 29.4C6.77333 29.4 5.26667 29.08 3.96 28.44C2.68 27.7733 1.61333 26.88 0.76 25.76L4.44 22.24C4.92 22.9333 5.49333 23.4667 6.16 23.84C6.85333 24.1867 7.61333 24.36 8.44 24.36C9.26667 24.36 9.98667 24.1867 10.6 23.84C11.24 23.4933 11.72 22.9867 12.04 22.32C12.3867 21.6533 12.56 20.84 12.56 19.88V0.88H18.04V19.56C18.04 21.5333 17.64 23.2667 16.84 24.76C16.0667 26.2267 14.96 27.3733 13.52 28.2C12.1067 29 10.4267 29.4 8.48 29.4ZM31.9078 29.4C29.9611 29.4 28.2011 28.96 26.6278 28.08C25.0811 27.1733 23.8411 25.96 22.9078 24.44C22.0011 22.8933 21.5478 21.1733 21.5478 19.28C21.5478 17.3867 22.0011 15.6933 22.9078 14.2C23.8145 12.68 25.0545 11.48 26.6278 10.6C28.2011 9.69333 29.9478 9.24 31.8678 9.24C33.8411 9.24 35.6011 9.69333 37.1478 10.6C38.7211 11.48 39.9611 12.68 40.8678 14.2C41.7745 15.6933 42.2278 17.3867 42.2278 19.28C42.2278 21.1733 41.7745 22.8933 40.8678 24.44C39.9611 25.96 38.7211 27.1733 37.1478 28.08C35.6011 28.96 33.8545 29.4 31.9078 29.4ZM31.8678 24.52C32.8545 24.52 33.7211 24.3067 34.4678 23.88C35.2411 23.4267 35.8278 22.8133 36.2278 22.04C36.6545 21.24 36.8678 20.3333 36.8678 19.32C36.8678 18.3067 36.6545 17.4133 36.2278 16.64C35.8011 15.8667 35.2145 15.2667 34.4678 14.84C33.7211 14.3867 32.8545 14.16 31.8678 14.16C30.9078 14.16 30.0545 14.3867 29.3078 14.84C28.5611 15.2667 27.9745 15.8667 27.5478 16.64C27.1211 17.4133 26.9078 18.3067 26.9078 19.32C26.9078 20.3333 27.1211 21.24 27.5478 22.04C27.9745 22.8133 28.5611 23.4267 29.3078 23.88C30.0545 24.3067 30.9078 24.52 31.8678 24.52ZM45.6013 29V9.68H50.8813V29H45.6013ZM48.2413 6.56C47.3879 6.56 46.6813 6.28 46.1213 5.72C45.5613 5.13333 45.2813 4.41333 45.2813 3.56C45.2813 2.73333 45.5613 2.02667 46.1213 1.44C46.6813 0.853333 47.3879 0.559999 48.2413 0.559999C49.1213 0.559999 49.8279 0.853333 50.3613 1.44C50.9213 2.02667 51.2013 2.73333 51.2013 3.56C51.2013 4.41333 50.9213 5.13333 50.3613 5.72C49.8279 6.28 49.1213 6.56 48.2413 6.56ZM68.5231 29V17.92C68.5231 16.7733 68.1631 15.84 67.4431 15.12C66.7231 14.4 65.7898 14.04 64.6431 14.04C63.8965 14.04 63.2298 14.2 62.6431 14.52C62.0565 14.84 61.5898 15.2933 61.2431 15.88C60.9231 16.4667 60.7631 17.1467 60.7631 17.92L58.7231 16.88C58.7231 15.36 59.0431 14.04 59.6831 12.92C60.3498 11.7733 61.2565 10.88 62.4031 10.24C63.5765 9.6 64.8965 9.28 66.3631 9.28C67.7765 9.28 69.0431 9.64 70.1631 10.36C71.2831 11.0533 72.1631 11.9733 72.8031 13.12C73.4431 14.24 73.7631 15.4533 73.7631 16.76V29H68.5231ZM55.5231 29V9.68H60.7631V29H55.5231ZM94.8766 29.4C92.9299 29.4 91.1699 28.96 89.5966 28.08C88.0499 27.1733 86.8099 25.96 85.8766 24.44C84.9699 22.8933 84.5166 21.1733 84.5166 19.28C84.5166 17.3867 84.9699 15.6933 85.8766 14.2C86.7832 12.68 88.0232 11.48 89.5966 10.6C91.1699 9.69333 92.9166 9.24 94.8366 9.24C96.8099 9.24 98.5699 9.69333 100.117 10.6C101.69 11.48 102.93 12.68 103.837 14.2C104.743 15.6933 105.197 17.3867 105.197 19.28C105.197 21.1733 104.743 22.8933 103.837 24.44C102.93 25.96 101.69 27.1733 100.117 28.08C98.5699 28.96 96.8232 29.4 94.8766 29.4ZM94.8366 24.52C95.8232 24.52 96.6899 24.3067 97.4366 23.88C98.2099 23.4267 98.7966 22.8133 99.1966 22.04C99.6232 21.24 99.8366 20.3333 99.8366 19.32C99.8366 18.3067 99.6232 17.4133 99.1966 16.64C98.7699 15.8667 98.1832 15.2667 97.4366 14.84C96.6899 14.3867 95.8232 14.16 94.8366 14.16C93.8766 14.16 93.0232 14.3867 92.2766 14.84C91.5299 15.2667 90.9432 15.8667 90.5166 16.64C90.0899 17.4133 89.8766 18.3067 89.8766 19.32C89.8766 20.3333 90.0899 21.24 90.5166 22.04C90.9432 22.8133 91.5299 23.4267 92.2766 23.88C93.0232 24.3067 93.8766 24.52 94.8366 24.52ZM116.81 29.4C115.103 29.4 113.583 29.04 112.25 28.32C110.943 27.6 109.917 26.6 109.17 25.32C108.423 24.04 108.05 22.56 108.05 20.88V9.68H113.33V20.76C113.33 21.56 113.463 22.2533 113.73 22.84C113.997 23.4 114.397 23.8267 114.93 24.12C115.463 24.4133 116.09 24.56 116.81 24.56C117.903 24.56 118.757 24.2267 119.37 23.56C119.983 22.8933 120.29 21.96 120.29 20.76V9.68H125.53V20.88C125.53 22.5867 125.157 24.08 124.41 25.36C123.69 26.64 122.663 27.64 121.33 28.36C120.023 29.0533 118.517 29.4 116.81 29.4ZM129.703 29V9.68H134.943V29H129.703ZM134.943 18.32L132.903 16.96C133.143 14.5867 133.836 12.72 134.983 11.36C136.129 9.97333 137.783 9.28 139.943 9.28C140.876 9.28 141.716 9.44 142.463 9.76C143.209 10.0533 143.889 10.5467 144.503 11.24L141.223 15C140.929 14.68 140.569 14.44 140.143 14.28C139.743 14.12 139.276 14.04 138.743 14.04C137.623 14.04 136.703 14.4 135.983 15.12C135.289 15.8133 134.943 16.88 134.943 18.32ZM160.019 29L152.779 9.68H158.059L162.779 23.72L161.179 23.76L166.019 9.68H169.819L174.659 23.76L173.059 23.72L177.779 9.68H183.059L175.859 29H172.059L167.179 15.64H168.659L163.779 29H160.019ZM193.252 29.4C191.492 29.4 189.905 28.96 188.492 28.08C187.078 27.2 185.972 26 185.172 24.48C184.372 22.96 183.972 21.2533 183.972 19.36C183.972 17.44 184.372 15.72 185.172 14.2C185.972 12.68 187.078 11.48 188.492 10.6C189.905 9.72 191.492 9.28 193.252 9.28C194.638 9.28 195.878 9.56 196.972 10.12C198.065 10.68 198.932 11.4667 199.572 12.48C200.238 13.4667 200.598 14.5867 200.652 15.84V22.8C200.598 24.08 200.238 25.2133 199.572 26.2C198.932 27.1867 198.065 27.9733 196.972 28.56C195.878 29.12 194.638 29.4 193.252 29.4ZM194.212 24.56C195.678 24.56 196.865 24.08 197.772 23.12C198.678 22.1333 199.132 20.8667 199.132 19.32C199.132 18.3067 198.918 17.4133 198.492 16.64C198.092 15.84 197.518 15.2267 196.772 14.8C196.052 14.3467 195.198 14.12 194.212 14.12C193.252 14.12 192.398 14.3467 191.652 14.8C190.932 15.2267 190.358 15.84 189.932 16.64C189.532 17.4133 189.332 18.3067 189.332 19.32C189.332 20.36 189.532 21.28 189.932 22.08C190.358 22.8533 190.932 23.4667 191.652 23.92C192.398 24.3467 193.252 24.56 194.212 24.56ZM198.852 29V23.8L199.692 19.08L198.852 14.44V9.68H204.052V29H198.852ZM208.687 29V9.68H213.967V29H208.687ZM211.327 6.56C210.474 6.56 209.767 6.28 209.207 5.72C208.647 5.13333 208.367 4.41333 208.367 3.56C208.367 2.73333 208.647 2.02667 209.207 1.44C209.767 0.853333 210.474 0.559999 211.327 0.559999C212.207 0.559999 212.914 0.853333 213.447 1.44C214.007 2.02667 214.287 2.73333 214.287 3.56C214.287 4.41333 214.007 5.13333 213.447 5.72C212.914 6.28 212.207 6.56 211.327 6.56ZM221.449 29V1.64H226.689V29H221.449ZM216.929 14.28V9.68H231.209V14.28H216.929ZM234.156 29V0.079998H239.396V29H234.156ZM244.039 29V9.68H249.319V29H244.039ZM246.679 6.56C245.825 6.56 245.119 6.28 244.559 5.72C243.999 5.13333 243.719 4.41333 243.719 3.56C243.719 2.73333 243.999 2.02667 244.559 1.44C245.119 0.853333 245.825 0.559999 246.679 0.559999C247.559 0.559999 248.265 0.853333 248.799 1.44C249.359 2.02667 249.639 2.73333 249.639 3.56C249.639 4.41333 249.359 5.13333 248.799 5.72C248.265 6.28 247.559 6.56 246.679 6.56ZM260.601 29.44C259.507 29.44 258.427 29.2933 257.361 29C256.321 28.7067 255.361 28.3067 254.481 27.8C253.601 27.2667 252.841 26.6267 252.201 25.88L255.321 22.72C255.987 23.4667 256.761 24.0267 257.641 24.4C258.521 24.7733 259.494 24.96 260.561 24.96C261.414 24.96 262.054 24.84 262.481 24.6C262.934 24.36 263.161 24 263.161 23.52C263.161 22.9867 262.921 22.5733 262.441 22.28C261.987 21.9867 261.387 21.7467 260.641 21.56C259.894 21.3467 259.107 21.12 258.281 20.88C257.481 20.6133 256.707 20.28 255.961 19.88C255.214 19.4533 254.601 18.88 254.121 18.16C253.667 17.4133 253.441 16.4533 253.441 15.28C253.441 14.0533 253.734 12.9867 254.321 12.08C254.934 11.1733 255.801 10.4667 256.921 9.96C258.041 9.45333 259.361 9.2 260.881 9.2C262.481 9.2 263.921 9.48 265.201 10.04C266.507 10.6 267.587 11.44 268.441 12.56L265.281 15.72C264.694 15 264.027 14.48 263.281 14.16C262.561 13.84 261.774 13.68 260.921 13.68C260.147 13.68 259.547 13.8 259.121 14.04C258.721 14.28 258.521 14.6133 258.521 15.04C258.521 15.52 258.747 15.8933 259.201 16.16C259.681 16.4267 260.294 16.6667 261.041 16.88C261.787 17.0667 262.561 17.2933 263.361 17.56C264.187 17.8 264.961 18.1467 265.681 18.6C266.427 19.0533 267.027 19.6533 267.481 20.4C267.961 21.1467 268.201 22.1067 268.201 23.28C268.201 25.1733 267.521 26.68 266.161 27.8C264.801 28.8933 262.947 29.44 260.601 29.44ZM274.574 29V1.64H279.814V29H274.574ZM270.054 14.28V9.68H284.334V14.28H270.054ZM2.788 115V91.404H5.984V115H2.788ZM4.964 115V112.076H18.496V115H4.964ZM4.964 104.324V101.536H17.374V104.324H4.964ZM4.964 94.328V91.404H18.326V94.328H4.964ZM33.7227 115V105.582C33.7227 104.358 33.3374 103.349 32.5667 102.556C31.796 101.763 30.7987 101.366 29.5747 101.366C28.7587 101.366 28.0334 101.547 27.3987 101.91C26.764 102.273 26.2654 102.771 25.9027 103.406C25.54 104.041 25.3587 104.766 25.3587 105.582L24.1007 104.868C24.1007 103.644 24.3727 102.556 24.9167 101.604C25.4607 100.652 26.22 99.904 27.1947 99.36C28.1694 98.7933 29.2687 98.51 30.4927 98.51C31.7167 98.51 32.7934 98.816 33.7227 99.428C34.6747 100.04 35.4227 100.845 35.9667 101.842C36.5107 102.817 36.7827 103.859 36.7827 104.97V115H33.7227ZM22.2987 115V98.85H25.3587V115H22.2987ZM43.2084 115V92.084H46.2684V115H43.2084ZM39.2304 101.638V98.85H50.2464V101.638H39.2304ZM60.226 115.34C58.6166 115.34 57.166 114.977 55.874 114.252C54.582 113.504 53.562 112.495 52.814 111.226C52.066 109.957 51.692 108.517 51.692 106.908C51.692 105.321 52.0546 103.893 52.78 102.624C53.528 101.355 54.5253 100.357 55.772 99.632C57.0413 98.884 58.458 98.51 60.022 98.51C61.518 98.51 62.8326 98.85 63.966 99.53C65.122 100.21 66.0173 101.151 66.652 102.352C67.3093 103.553 67.638 104.913 67.638 106.432C67.638 106.659 67.6266 106.908 67.604 107.18C67.5813 107.429 67.536 107.724 67.468 108.064H53.834V105.514H65.836L64.714 106.5C64.714 105.412 64.5213 104.494 64.136 103.746C63.7506 102.975 63.2066 102.386 62.504 101.978C61.8013 101.547 60.9513 101.332 59.954 101.332C58.9113 101.332 57.9933 101.559 57.2 102.012C56.4066 102.465 55.7946 103.1 55.364 103.916C54.9333 104.732 54.718 105.695 54.718 106.806C54.718 107.939 54.9446 108.937 55.398 109.798C55.8513 110.637 56.4973 111.294 57.336 111.77C58.1746 112.223 59.138 112.45 60.226 112.45C61.1326 112.45 61.96 112.291 62.708 111.974C63.4786 111.657 64.136 111.181 64.68 110.546L66.652 112.552C65.8813 113.459 64.9293 114.15 63.796 114.626C62.6853 115.102 61.4953 115.34 60.226 115.34ZM70.9745 115V98.85H74.0345V115H70.9745ZM74.0345 105.786L72.8785 105.276C72.8785 103.213 73.3545 101.57 74.3065 100.346C75.2585 99.122 76.6298 98.51 78.4205 98.51C79.2365 98.51 79.9731 98.6573 80.6305 98.952C81.2878 99.224 81.8998 99.6887 82.4665 100.346L80.4605 102.42C80.1205 102.057 79.7465 101.797 79.3385 101.638C78.9305 101.479 78.4545 101.4 77.9105 101.4C76.7771 101.4 75.8478 101.763 75.1225 102.488C74.3971 103.213 74.0345 104.313 74.0345 105.786ZM97.5949 115.136L90.5909 98.85H93.9909L99.1929 111.6H98.1049L103.579 98.85H106.979L99.4309 115.136H97.5949ZM92.9709 121.766L97.7309 112.008L99.4309 115.136L96.3709 121.766H92.9709ZM116.237 115.34C114.651 115.34 113.223 114.966 111.953 114.218C110.684 113.47 109.675 112.461 108.927 111.192C108.179 109.9 107.805 108.461 107.805 106.874C107.805 105.31 108.179 103.905 108.927 102.658C109.675 101.389 110.684 100.38 111.953 99.632C113.223 98.884 114.651 98.51 116.237 98.51C117.801 98.51 119.218 98.884 120.487 99.632C121.779 100.357 122.799 101.355 123.547 102.624C124.295 103.893 124.669 105.31 124.669 106.874C124.669 108.461 124.295 109.9 123.547 111.192C122.799 112.461 121.779 113.47 120.487 114.218C119.218 114.966 117.801 115.34 116.237 115.34ZM116.237 112.382C117.257 112.382 118.164 112.144 118.957 111.668C119.751 111.192 120.374 110.546 120.827 109.73C121.281 108.891 121.507 107.939 121.507 106.874C121.507 105.831 121.269 104.902 120.793 104.086C120.34 103.27 119.717 102.635 118.923 102.182C118.153 101.706 117.257 101.468 116.237 101.468C115.217 101.468 114.311 101.706 113.517 102.182C112.724 102.635 112.101 103.27 111.647 104.086C111.194 104.902 110.967 105.831 110.967 106.874C110.967 107.939 111.194 108.891 111.647 109.73C112.101 110.546 112.724 111.192 113.517 111.668C114.311 112.144 115.217 112.382 116.237 112.382ZM134.611 115.34C133.296 115.34 132.106 115.045 131.041 114.456C129.998 113.844 129.182 113.005 128.593 111.94C128.004 110.875 127.709 109.639 127.709 108.234V98.85H130.769V108.098C130.769 108.982 130.916 109.753 131.211 110.41C131.528 111.045 131.982 111.532 132.571 111.872C133.16 112.212 133.852 112.382 134.645 112.382C135.846 112.382 136.787 112.008 137.467 111.26C138.147 110.489 138.487 109.435 138.487 108.098V98.85H141.547V108.234C141.547 109.639 141.252 110.875 140.663 111.94C140.074 113.005 139.258 113.844 138.215 114.456C137.195 115.045 135.994 115.34 134.611 115.34ZM145.648 115V98.85H148.708V115H145.648ZM148.708 105.786L147.552 105.276C147.552 103.213 148.028 101.57 148.98 100.346C149.932 99.122 151.304 98.51 153.094 98.51C153.91 98.51 154.647 98.6573 155.304 98.952C155.962 99.224 156.574 99.6887 157.14 100.346L155.134 102.42C154.794 102.057 154.42 101.797 154.012 101.638C153.604 101.479 153.128 101.4 152.584 101.4C151.451 101.4 150.522 101.763 149.796 102.488C149.071 103.213 148.708 104.313 148.708 105.786ZM173.799 115.34C172.303 115.34 170.965 114.977 169.787 114.252C168.608 113.504 167.667 112.495 166.965 111.226C166.285 109.957 165.945 108.529 165.945 106.942C165.945 105.355 166.285 103.927 166.965 102.658C167.667 101.389 168.608 100.38 169.787 99.632C170.965 98.884 172.303 98.51 173.799 98.51C175 98.51 176.088 98.7707 177.063 99.292C178.037 99.7907 178.819 100.493 179.409 101.4C180.021 102.284 180.361 103.315 180.429 104.494V109.356C180.361 110.512 180.032 111.543 179.443 112.45C178.853 113.357 178.071 114.071 177.097 114.592C176.122 115.091 175.023 115.34 173.799 115.34ZM174.309 112.45C175.329 112.45 176.213 112.212 176.961 111.736C177.731 111.26 178.332 110.614 178.763 109.798C179.193 108.959 179.409 108.007 179.409 106.942C179.409 105.831 179.182 104.868 178.729 104.052C178.298 103.236 177.697 102.59 176.927 102.114C176.179 101.638 175.295 101.4 174.275 101.4C173.255 101.4 172.359 101.638 171.589 102.114C170.818 102.59 170.206 103.247 169.753 104.086C169.322 104.902 169.107 105.843 169.107 106.908C169.107 107.996 169.322 108.959 169.753 109.798C170.206 110.614 170.818 111.26 171.589 111.736C172.382 112.212 173.289 112.45 174.309 112.45ZM182.299 115H179.205V110.648L179.783 106.704L179.205 102.794V90.724H182.299V115ZM194.234 115.34C192.624 115.34 191.174 114.977 189.882 114.252C188.59 113.504 187.57 112.495 186.822 111.226C186.074 109.957 185.7 108.517 185.7 106.908C185.7 105.321 186.062 103.893 186.788 102.624C187.536 101.355 188.533 100.357 189.78 99.632C191.049 98.884 192.466 98.51 194.03 98.51C195.526 98.51 196.84 98.85 197.974 99.53C199.13 100.21 200.025 101.151 200.66 102.352C201.317 103.553 201.646 104.913 201.646 106.432C201.646 106.659 201.634 106.908 201.612 107.18C201.589 107.429 201.544 107.724 201.476 108.064H187.842V105.514H199.844L198.722 106.5C198.722 105.412 198.529 104.494 198.144 103.746C197.758 102.975 197.214 102.386 196.512 101.978C195.809 101.547 194.959 101.332 193.962 101.332C192.919 101.332 192.001 101.559 191.208 102.012C190.414 102.465 189.802 103.1 189.372 103.916C188.941 104.732 188.726 105.695 188.726 106.806C188.726 107.939 188.952 108.937 189.406 109.798C189.859 110.637 190.505 111.294 191.344 111.77C192.182 112.223 193.146 112.45 194.234 112.45C195.14 112.45 195.968 112.291 196.716 111.974C197.486 111.657 198.144 111.181 198.688 110.546L200.66 112.552C199.889 113.459 198.937 114.15 197.804 114.626C196.693 115.102 195.503 115.34 194.234 115.34ZM206.966 115V92.084H210.026V115H206.966ZM202.988 101.638V98.85H214.004V101.638H202.988ZM223.372 115.34C221.898 115.34 220.561 114.977 219.36 114.252C218.158 113.504 217.206 112.495 216.504 111.226C215.824 109.957 215.484 108.529 215.484 106.942C215.484 105.355 215.824 103.927 216.504 102.658C217.206 101.389 218.147 100.38 219.326 99.632C220.527 98.884 221.876 98.51 223.372 98.51C224.596 98.51 225.684 98.7707 226.636 99.292C227.61 99.7907 228.392 100.493 228.982 101.4C229.571 102.284 229.9 103.315 229.968 104.494V109.356C229.9 110.512 229.571 111.543 228.982 112.45C228.415 113.357 227.644 114.071 226.67 114.592C225.718 115.091 224.618 115.34 223.372 115.34ZM223.882 112.45C225.4 112.45 226.624 111.94 227.554 110.92C228.483 109.877 228.948 108.551 228.948 106.942C228.948 105.831 228.732 104.868 228.302 104.052C227.894 103.213 227.304 102.567 226.534 102.114C225.763 101.638 224.868 101.4 223.848 101.4C222.828 101.4 221.921 101.638 221.128 102.114C220.357 102.59 219.745 103.247 219.292 104.086C218.861 104.902 218.646 105.843 218.646 106.908C218.646 107.996 218.861 108.959 219.292 109.798C219.745 110.614 220.368 111.26 221.162 111.736C221.955 112.212 222.862 112.45 223.882 112.45ZM228.744 115V110.648L229.322 106.704L228.744 102.794V98.85H231.838V115H228.744ZM236.327 115V98.85H239.387V115H236.327ZM237.857 95.62C237.29 95.62 236.825 95.4387 236.463 95.076C236.1 94.6907 235.919 94.2147 235.919 93.648C235.919 93.104 236.1 92.6507 236.463 92.288C236.825 91.9027 237.29 91.71 237.857 91.71C238.423 91.71 238.888 91.9027 239.251 92.288C239.613 92.6507 239.795 93.104 239.795 93.648C239.795 94.2147 239.613 94.6907 239.251 95.076C238.888 95.4387 238.423 95.62 237.857 95.62ZM243.896 115V90.724H246.956V115H243.896ZM256.567 115.34C255.661 115.34 254.799 115.227 253.983 115C253.19 114.751 252.453 114.411 251.773 113.98C251.093 113.527 250.504 112.994 250.005 112.382L251.977 110.41C252.567 111.135 253.247 111.679 254.017 112.042C254.788 112.382 255.649 112.552 256.601 112.552C257.553 112.552 258.29 112.393 258.811 112.076C259.333 111.736 259.593 111.271 259.593 110.682C259.593 110.093 259.378 109.639 258.947 109.322C258.539 108.982 258.007 108.71 257.349 108.506C256.692 108.279 255.989 108.064 255.241 107.86C254.516 107.633 253.825 107.35 253.167 107.01C252.51 106.67 251.966 106.205 251.535 105.616C251.127 105.027 250.923 104.245 250.923 103.27C250.923 102.295 251.161 101.457 251.637 100.754C252.113 100.029 252.771 99.4733 253.609 99.088C254.471 98.7027 255.502 98.51 256.703 98.51C257.973 98.51 259.095 98.7367 260.069 99.19C261.067 99.6207 261.883 100.278 262.517 101.162L260.545 103.134C260.092 102.545 259.525 102.091 258.845 101.774C258.188 101.457 257.44 101.298 256.601 101.298C255.717 101.298 255.037 101.457 254.561 101.774C254.108 102.069 253.881 102.488 253.881 103.032C253.881 103.576 254.085 103.995 254.493 104.29C254.901 104.585 255.434 104.834 256.091 105.038C256.771 105.242 257.474 105.457 258.199 105.684C258.925 105.888 259.616 106.171 260.273 106.534C260.931 106.897 261.463 107.384 261.871 107.996C262.302 108.608 262.517 109.413 262.517 110.41C262.517 111.929 261.973 113.13 260.885 114.014C259.82 114.898 258.381 115.34 256.567 115.34ZM279.883 115.34C278.41 115.34 277.073 114.977 275.871 114.252C274.67 113.504 273.718 112.495 273.015 111.226C272.335 109.957 271.995 108.529 271.995 106.942C271.995 105.355 272.335 103.927 273.015 102.658C273.718 101.389 274.659 100.38 275.837 99.632C277.039 98.884 278.387 98.51 279.883 98.51C281.107 98.51 282.195 98.7707 283.147 99.292C284.122 99.7907 284.904 100.493 285.493 101.4C286.083 102.284 286.411 103.315 286.479 104.494V109.356C286.411 110.512 286.083 111.543 285.493 112.45C284.927 113.357 284.156 114.071 283.181 114.592C282.229 115.091 281.13 115.34 279.883 115.34ZM280.393 112.45C281.912 112.45 283.136 111.94 284.065 110.92C284.995 109.877 285.459 108.551 285.459 106.942C285.459 105.831 285.244 104.868 284.813 104.052C284.405 103.213 283.816 102.567 283.045 102.114C282.275 101.638 281.379 101.4 280.359 101.4C279.339 101.4 278.433 101.638 277.639 102.114C276.869 102.59 276.257 103.247 275.803 104.086C275.373 104.902 275.157 105.843 275.157 106.908C275.157 107.996 275.373 108.959 275.803 109.798C276.257 110.614 276.88 111.26 277.673 111.736C278.467 112.212 279.373 112.45 280.393 112.45ZM285.255 115V110.648L285.833 106.704L285.255 102.794V98.85H288.349V115H285.255ZM304.229 115V105.582C304.229 104.358 303.843 103.349 303.073 102.556C302.302 101.763 301.305 101.366 300.081 101.366C299.265 101.366 298.539 101.547 297.905 101.91C297.27 102.273 296.771 102.771 296.409 103.406C296.046 104.041 295.865 104.766 295.865 105.582L294.607 104.868C294.607 103.644 294.879 102.556 295.423 101.604C295.967 100.652 296.726 99.904 297.701 99.36C298.675 98.7933 299.775 98.51 300.999 98.51C302.223 98.51 303.299 98.816 304.229 99.428C305.181 100.04 305.929 100.845 306.473 101.842C307.017 102.817 307.289 103.859 307.289 104.97V115H304.229ZM292.805 115V98.85H295.865V115H292.805ZM318.266 115.34C316.77 115.34 315.432 114.977 314.254 114.252C313.075 113.504 312.134 112.495 311.431 111.226C310.752 109.957 310.412 108.529 310.412 106.942C310.412 105.355 310.752 103.927 311.431 102.658C312.134 101.389 313.075 100.38 314.254 99.632C315.432 98.884 316.77 98.51 318.266 98.51C319.467 98.51 320.555 98.7707 321.53 99.292C322.504 99.7907 323.286 100.493 323.876 101.4C324.488 102.284 324.828 103.315 324.896 104.494V109.356C324.828 110.512 324.499 111.543 323.91 112.45C323.32 113.357 322.538 114.071 321.564 114.592C320.589 115.091 319.49 115.34 318.266 115.34ZM318.776 112.45C319.796 112.45 320.68 112.212 321.428 111.736C322.198 111.26 322.799 110.614 323.23 109.798C323.66 108.959 323.876 108.007 323.876 106.942C323.876 105.831 323.649 104.868 323.196 104.052C322.765 103.236 322.164 102.59 321.394 102.114C320.646 101.638 319.762 101.4 318.742 101.4C317.722 101.4 316.826 101.638 316.056 102.114C315.285 102.59 314.673 103.247 314.22 104.086C313.789 104.902 313.574 105.843 313.574 106.908C313.574 107.996 313.789 108.959 314.22 109.798C314.673 110.614 315.285 111.26 316.056 111.736C316.849 112.212 317.756 112.45 318.776 112.45ZM326.766 115H323.672V110.648L324.25 106.704L323.672 102.794V90.724H326.766V115ZM346.793 115.34C345.569 115.34 344.458 115.091 343.461 114.592C342.486 114.071 341.704 113.357 341.115 112.45C340.525 111.543 340.197 110.512 340.129 109.356V104.494C340.197 103.315 340.525 102.284 341.115 101.4C341.727 100.493 342.52 99.7907 343.495 99.292C344.492 98.7707 345.591 98.51 346.793 98.51C348.266 98.51 349.592 98.884 350.771 99.632C351.972 100.38 352.913 101.389 353.593 102.658C354.273 103.927 354.613 105.355 354.613 106.942C354.613 108.529 354.273 109.957 353.593 111.226C352.913 112.495 351.972 113.504 350.771 114.252C349.592 114.977 348.266 115.34 346.793 115.34ZM346.283 112.45C347.303 112.45 348.198 112.212 348.969 111.736C349.739 111.26 350.351 110.614 350.805 109.798C351.258 108.959 351.485 107.996 351.485 106.908C351.485 105.843 351.258 104.891 350.805 104.052C350.351 103.213 349.739 102.567 348.969 102.114C348.198 101.638 347.314 101.4 346.317 101.4C345.297 101.4 344.401 101.638 343.631 102.114C342.86 102.567 342.259 103.213 341.829 104.052C341.398 104.891 341.183 105.854 341.183 106.942C341.183 108.007 341.387 108.959 341.795 109.798C342.225 110.614 342.826 111.26 343.597 111.736C344.39 112.212 345.285 112.45 346.283 112.45ZM338.293 115V90.724H341.353V102.794L340.775 106.704L341.353 110.648V115H338.293ZM365.562 115.34C363.953 115.34 362.502 114.977 361.21 114.252C359.918 113.504 358.898 112.495 358.15 111.226C357.402 109.957 357.028 108.517 357.028 106.908C357.028 105.321 357.391 103.893 358.116 102.624C358.864 101.355 359.861 100.357 361.108 99.632C362.377 98.884 363.794 98.51 365.358 98.51C366.854 98.51 368.169 98.85 369.302 99.53C370.458 100.21 371.353 101.151 371.988 102.352C372.645 103.553 372.974 104.913 372.974 106.432C372.974 106.659 372.963 106.908 372.94 107.18C372.917 107.429 372.872 107.724 372.804 108.064H359.17V105.514H371.172L370.05 106.5C370.05 105.412 369.857 104.494 369.472 103.746C369.087 102.975 368.543 102.386 367.84 101.978C367.137 101.547 366.287 101.332 365.29 101.332C364.247 101.332 363.329 101.559 362.536 102.012C361.743 102.465 361.131 103.1 360.7 103.916C360.269 104.732 360.054 105.695 360.054 106.806C360.054 107.939 360.281 108.937 360.734 109.798C361.187 110.637 361.833 111.294 362.672 111.77C363.511 112.223 364.474 112.45 365.562 112.45C366.469 112.45 367.296 112.291 368.044 111.974C368.815 111.657 369.472 111.181 370.016 110.546L371.988 112.552C371.217 113.459 370.265 114.15 369.132 114.626C368.021 115.102 366.831 115.34 365.562 115.34ZM385.865 115V92.084H388.925V115H385.865ZM381.887 101.638V98.85H392.903V101.638H381.887ZM407.324 115V105.582C407.324 104.358 406.939 103.349 406.168 102.556C405.398 101.763 404.4 101.366 403.176 101.366C402.36 101.366 401.635 101.547 401 101.91C400.366 102.273 399.867 102.771 399.504 103.406C399.142 104.041 398.96 104.766 398.96 105.582L397.702 104.868C397.702 103.644 397.974 102.556 398.518 101.604C399.062 100.652 399.822 99.904 400.796 99.36C401.771 98.7933 402.87 98.51 404.094 98.51C405.318 98.51 406.395 98.782 407.324 99.326C408.276 99.87 409.024 100.629 409.568 101.604C410.112 102.579 410.384 103.701 410.384 104.97V115H407.324ZM395.9 115V90.724H398.96V115H395.9ZM422.007 115.34C420.398 115.34 418.947 114.977 417.655 114.252C416.363 113.504 415.343 112.495 414.595 111.226C413.847 109.957 413.473 108.517 413.473 106.908C413.473 105.321 413.836 103.893 414.561 102.624C415.309 101.355 416.307 100.357 417.553 99.632C418.823 98.884 420.239 98.51 421.803 98.51C423.299 98.51 424.614 98.85 425.747 99.53C426.903 100.21 427.799 101.151 428.433 102.352C429.091 103.553 429.419 104.913 429.419 106.432C429.419 106.659 429.408 106.908 429.385 107.18C429.363 107.429 429.317 107.724 429.249 108.064H415.615V105.514H427.617L426.495 106.5C426.495 105.412 426.303 104.494 425.917 103.746C425.532 102.975 424.988 102.386 424.285 101.978C423.583 101.547 422.733 101.332 421.735 101.332C420.693 101.332 419.775 101.559 418.981 102.012C418.188 102.465 417.576 103.1 417.145 103.916C416.715 104.732 416.499 105.695 416.499 106.806C416.499 107.939 416.726 108.937 417.179 109.798C417.633 110.637 418.279 111.294 419.117 111.77C419.956 112.223 420.919 112.45 422.007 112.45C422.914 112.45 423.741 112.291 424.489 111.974C425.26 111.657 425.917 111.181 426.461 110.546L428.433 112.552C427.663 113.459 426.711 114.15 425.577 114.626C424.467 115.102 423.277 115.34 422.007 115.34ZM4.556 158V138.926C4.556 137.861 4.78267 136.92 5.236 136.104C5.712 135.265 6.36933 134.608 7.208 134.132C8.04667 133.633 9.01 133.384 10.098 133.384C10.9367 133.384 11.6733 133.531 12.308 133.826C12.9427 134.098 13.532 134.483 14.076 134.982L12.07 136.988C11.7753 136.739 11.4693 136.557 11.152 136.444C10.8347 136.308 10.4833 136.24 10.098 136.24C9.30467 136.24 8.69267 136.489 8.262 136.988C7.83133 137.464 7.616 138.11 7.616 138.926V158H4.556ZM0.578 144.638V141.85H15.912V144.638H0.578ZM14.144 158V141.85H17.238V158H14.144ZM15.674 140.15C15.13 140.15 14.6767 139.969 14.314 139.606C13.9513 139.221 13.77 138.745 13.77 138.178C13.77 137.634 13.9513 137.181 14.314 136.818C14.6767 136.433 15.13 136.24 15.674 136.24C16.2633 136.24 16.728 136.433 17.068 136.818C17.4307 137.181 17.612 137.634 17.612 138.178C17.612 138.745 17.4307 139.221 17.068 139.606C16.728 139.969 16.2633 140.15 15.674 140.15ZM21.7342 158V141.85H24.7942V158H21.7342ZM24.7942 148.786L23.6382 148.276C23.6382 146.213 24.1142 144.57 25.0662 143.346C26.0182 142.122 27.3896 141.51 29.1802 141.51C29.9962 141.51 30.7329 141.657 31.3902 141.952C32.0476 142.224 32.6596 142.689 33.2262 143.346L31.2202 145.42C30.8802 145.057 30.5062 144.797 30.0982 144.638C29.6902 144.479 29.2142 144.4 28.6702 144.4C27.5369 144.4 26.6076 144.763 25.8822 145.488C25.1569 146.213 24.7942 147.313 24.7942 148.786ZM40.1495 158.34C39.2428 158.34 38.3815 158.227 37.5655 158C36.7722 157.751 36.0355 157.411 35.3555 156.98C34.6755 156.527 34.0862 155.994 33.5875 155.382L35.5595 153.41C36.1488 154.135 36.8288 154.679 37.5995 155.042C38.3702 155.382 39.2315 155.552 40.1835 155.552C41.1355 155.552 41.8722 155.393 42.3935 155.076C42.9148 154.736 43.1755 154.271 43.1755 153.682C43.1755 153.093 42.9602 152.639 42.5295 152.322C42.1215 151.982 41.5888 151.71 40.9315 151.506C40.2742 151.279 39.5715 151.064 38.8235 150.86C38.0982 150.633 37.4068 150.35 36.7495 150.01C36.0922 149.67 35.5482 149.205 35.1175 148.616C34.7095 148.027 34.5055 147.245 34.5055 146.27C34.5055 145.295 34.7435 144.457 35.2195 143.754C35.6955 143.029 36.3528 142.473 37.1915 142.088C38.0528 141.703 39.0842 141.51 40.2855 141.51C41.5548 141.51 42.6768 141.737 43.6515 142.19C44.6488 142.621 45.4648 143.278 46.0995 144.162L44.1275 146.134C43.6742 145.545 43.1075 145.091 42.4275 144.774C41.7702 144.457 41.0222 144.298 40.1835 144.298C39.2995 144.298 38.6195 144.457 38.1435 144.774C37.6902 145.069 37.4635 145.488 37.4635 146.032C37.4635 146.576 37.6675 146.995 38.0755 147.29C38.4835 147.585 39.0162 147.834 39.6735 148.038C40.3535 148.242 41.0562 148.457 41.7815 148.684C42.5068 148.888 43.1982 149.171 43.8555 149.534C44.5128 149.897 45.0455 150.384 45.4535 150.996C45.8842 151.608 46.0995 152.413 46.0995 153.41C46.0995 154.929 45.5555 156.13 44.4675 157.014C43.4022 157.898 41.9628 158.34 40.1495 158.34ZM52.0073 158V135.084H55.0673V158H52.0073ZM48.0293 144.638V141.85H59.0453V144.638H48.0293ZM71.5971 158V135.084H74.6571V158H71.5971ZM67.6191 144.638V141.85H78.6351V144.638H67.6191ZM88.5126 158.34C86.926 158.34 85.498 157.966 84.2286 157.218C82.9593 156.47 81.9506 155.461 81.2026 154.192C80.4546 152.9 80.0806 151.461 80.0806 149.874C80.0806 148.31 80.4546 146.905 81.2026 145.658C81.9506 144.389 82.9593 143.38 84.2286 142.632C85.498 141.884 86.926 141.51 88.5126 141.51C90.0766 141.51 91.4933 141.884 92.7626 142.632C94.0546 143.357 95.0746 144.355 95.8226 145.624C96.5706 146.893 96.9446 148.31 96.9446 149.874C96.9446 151.461 96.5706 152.9 95.8226 154.192C95.0746 155.461 94.0546 156.47 92.7626 157.218C91.4933 157.966 90.0766 158.34 88.5126 158.34ZM88.5126 155.382C89.5326 155.382 90.4393 155.144 91.2326 154.668C92.026 154.192 92.6493 153.546 93.1026 152.73C93.556 151.891 93.7826 150.939 93.7826 149.874C93.7826 148.831 93.5446 147.902 93.0686 147.086C92.6153 146.27 91.992 145.635 91.1986 145.182C90.428 144.706 89.5326 144.468 88.5126 144.468C87.4926 144.468 86.586 144.706 85.7926 145.182C84.9993 145.635 84.376 146.27 83.9226 147.086C83.4693 147.902 83.2426 148.831 83.2426 149.874C83.2426 150.939 83.4693 151.891 83.9226 152.73C84.376 153.546 84.9993 154.192 85.7926 154.668C86.586 155.144 87.4926 155.382 88.5126 155.382ZM117.801 158L110.253 149.738L117.733 141.85H121.439L113.109 150.554L113.245 148.786L121.745 158H117.801ZM107.465 158V133.724H110.525V158H107.465ZM135.291 158V148.582C135.291 147.358 134.906 146.349 134.135 145.556C133.364 144.763 132.367 144.366 131.143 144.366C130.327 144.366 129.602 144.547 128.967 144.91C128.332 145.273 127.834 145.771 127.471 146.406C127.108 147.041 126.927 147.766 126.927 148.582L125.669 147.868C125.669 146.644 125.941 145.556 126.485 144.604C127.029 143.652 127.788 142.904 128.763 142.36C129.738 141.793 130.837 141.51 132.061 141.51C133.285 141.51 134.362 141.816 135.291 142.428C136.243 143.04 136.991 143.845 137.535 144.842C138.079 145.817 138.351 146.859 138.351 147.97V158H135.291ZM123.867 158V141.85H126.927V158H123.867ZM149.872 158.34C148.285 158.34 146.857 157.966 145.588 157.218C144.319 156.47 143.31 155.461 142.562 154.192C141.814 152.9 141.44 151.461 141.44 149.874C141.44 148.31 141.814 146.905 142.562 145.658C143.31 144.389 144.319 143.38 145.588 142.632C146.857 141.884 148.285 141.51 149.872 141.51C151.436 141.51 152.853 141.884 154.122 142.632C155.414 143.357 156.434 144.355 157.182 145.624C157.93 146.893 158.304 148.31 158.304 149.874C158.304 151.461 157.93 152.9 157.182 154.192C156.434 155.461 155.414 156.47 154.122 157.218C152.853 157.966 151.436 158.34 149.872 158.34ZM149.872 155.382C150.892 155.382 151.799 155.144 152.592 154.668C153.385 154.192 154.009 153.546 154.462 152.73C154.915 151.891 155.142 150.939 155.142 149.874C155.142 148.831 154.904 147.902 154.428 147.086C153.975 146.27 153.351 145.635 152.558 145.182C151.787 144.706 150.892 144.468 149.872 144.468C148.852 144.468 147.945 144.706 147.152 145.182C146.359 145.635 145.735 146.27 145.282 147.086C144.829 147.902 144.602 148.831 144.602 149.874C144.602 150.939 144.829 151.891 145.282 152.73C145.735 153.546 146.359 154.192 147.152 154.668C147.945 155.144 148.852 155.382 149.872 155.382ZM165.911 158L159.519 141.85H162.715L167.339 154.43H166.319L170.909 141.85H172.677L177.267 154.43H176.247L180.871 141.85H184.067L177.709 158H175.907L171.249 145.794H172.371L167.679 158H165.911ZM198.483 158L192.091 141.85H195.287L199.911 154.43H198.891L203.481 141.85H205.249L209.839 154.43H208.819L213.443 141.85H216.639L210.281 158H208.479L203.821 145.794H204.943L200.251 158H198.483ZM230.783 158V148.582C230.783 147.358 230.398 146.349 229.627 145.556C228.857 144.763 227.859 144.366 226.635 144.366C225.819 144.366 225.094 144.547 224.459 144.91C223.825 145.273 223.326 145.771 222.963 146.406C222.601 147.041 222.419 147.766 222.419 148.582L221.161 147.868C221.161 146.644 221.433 145.556 221.977 144.604C222.521 143.652 223.281 142.904 224.255 142.36C225.23 141.793 226.329 141.51 227.553 141.51C228.777 141.51 229.854 141.782 230.783 142.326C231.735 142.87 232.483 143.629 233.027 144.604C233.571 145.579 233.843 146.701 233.843 147.97V158H230.783ZM219.359 158V133.724H222.419V158H219.359ZM245.466 158.34C243.857 158.34 242.406 157.977 241.114 157.252C239.822 156.504 238.802 155.495 238.054 154.226C237.306 152.957 236.932 151.517 236.932 149.908C236.932 148.321 237.295 146.893 238.02 145.624C238.768 144.355 239.766 143.357 241.012 142.632C242.282 141.884 243.698 141.51 245.262 141.51C246.758 141.51 248.073 141.85 249.206 142.53C250.362 143.21 251.258 144.151 251.892 145.352C252.55 146.553 252.878 147.913 252.878 149.432C252.878 149.659 252.867 149.908 252.844 150.18C252.822 150.429 252.776 150.724 252.708 151.064H239.074V148.514H251.076L249.954 149.5C249.954 148.412 249.762 147.494 249.376 146.746C248.991 145.975 248.447 145.386 247.744 144.978C247.042 144.547 246.192 144.332 245.194 144.332C244.152 144.332 243.234 144.559 242.44 145.012C241.647 145.465 241.035 146.1 240.604 146.916C240.174 147.732 239.958 148.695 239.958 149.806C239.958 150.939 240.185 151.937 240.638 152.798C241.092 153.637 241.738 154.294 242.576 154.77C243.415 155.223 244.378 155.45 245.466 155.45C246.373 155.45 247.2 155.291 247.948 154.974C248.719 154.657 249.376 154.181 249.92 153.546L251.892 155.552C251.122 156.459 250.17 157.15 249.036 157.626C247.926 158.102 246.736 158.34 245.466 158.34ZM267.639 158V148.582C267.639 147.358 267.253 146.349 266.483 145.556C265.712 144.763 264.715 144.366 263.491 144.366C262.675 144.366 261.949 144.547 261.315 144.91C260.68 145.273 260.181 145.771 259.819 146.406C259.456 147.041 259.275 147.766 259.275 148.582L258.017 147.868C258.017 146.644 258.289 145.556 258.833 144.604C259.377 143.652 260.136 142.904 261.111 142.36C262.085 141.793 263.185 141.51 264.409 141.51C265.633 141.51 266.709 141.816 267.639 142.428C268.591 143.04 269.339 143.845 269.883 144.842C270.427 145.817 270.699 146.859 270.699 147.97V158H267.639ZM256.215 158V141.85H259.275V158H256.215ZM286.538 158L280.146 141.85H283.342L287.966 154.43H286.946L291.536 141.85H293.304L297.894 154.43H296.874L301.498 141.85H304.694L298.336 158H296.534L291.876 145.794H292.998L288.306 158H286.538ZM314.429 158.34C312.82 158.34 311.369 157.977 310.077 157.252C308.785 156.504 307.765 155.495 307.017 154.226C306.269 152.957 305.895 151.517 305.895 149.908C305.895 148.321 306.258 146.893 306.983 145.624C307.731 144.355 308.728 143.357 309.975 142.632C311.244 141.884 312.661 141.51 314.225 141.51C315.721 141.51 317.036 141.85 318.169 142.53C319.325 143.21 320.22 144.151 320.855 145.352C321.512 146.553 321.841 147.913 321.841 149.432C321.841 149.659 321.83 149.908 321.807 150.18C321.784 150.429 321.739 150.724 321.671 151.064H308.037V148.514H320.039L318.917 149.5C318.917 148.412 318.724 147.494 318.339 146.746C317.954 145.975 317.41 145.386 316.707 144.978C316.004 144.547 315.154 144.332 314.157 144.332C313.114 144.332 312.196 144.559 311.403 145.012C310.61 145.465 309.998 146.1 309.567 146.916C309.136 147.732 308.921 148.695 308.921 149.806C308.921 150.939 309.148 151.937 309.601 152.798C310.054 153.637 310.7 154.294 311.539 154.77C312.378 155.223 313.341 155.45 314.429 155.45C315.336 155.45 316.163 155.291 316.911 154.974C317.682 154.657 318.339 154.181 318.883 153.546L320.855 155.552C320.084 156.459 319.132 157.15 317.999 157.626C316.888 158.102 315.698 158.34 314.429 158.34ZM332.25 158V133.724H335.31V158H332.25ZM346.655 158.34C345.182 158.34 343.844 157.977 342.643 157.252C341.442 156.504 340.49 155.495 339.787 154.226C339.107 152.957 338.767 151.529 338.767 149.942C338.767 148.355 339.107 146.927 339.787 145.658C340.49 144.389 341.43 143.38 342.609 142.632C343.81 141.884 345.159 141.51 346.655 141.51C347.879 141.51 348.967 141.771 349.919 142.292C350.894 142.791 351.676 143.493 352.265 144.4C352.854 145.284 353.183 146.315 353.251 147.494V152.356C353.183 153.512 352.854 154.543 352.265 155.45C351.698 156.357 350.928 157.071 349.953 157.592C349.001 158.091 347.902 158.34 346.655 158.34ZM347.165 155.45C348.684 155.45 349.908 154.94 350.837 153.92C351.766 152.877 352.231 151.551 352.231 149.942C352.231 148.831 352.016 147.868 351.585 147.052C351.177 146.213 350.588 145.567 349.817 145.114C349.046 144.638 348.151 144.4 347.131 144.4C346.111 144.4 345.204 144.638 344.411 145.114C343.64 145.59 343.028 146.247 342.575 147.086C342.144 147.902 341.929 148.843 341.929 149.908C341.929 150.996 342.144 151.959 342.575 152.798C343.028 153.614 343.652 154.26 344.445 154.736C345.238 155.212 346.145 155.45 347.165 155.45ZM352.027 158V153.648L352.605 149.704L352.027 145.794V141.85H355.121V158H352.027ZM366.07 158.34C364.755 158.34 363.565 158.045 362.5 157.456C361.457 156.844 360.641 156.005 360.052 154.94C359.463 153.875 359.168 152.639 359.168 151.234V141.85H362.228V151.098C362.228 151.982 362.375 152.753 362.67 153.41C362.987 154.045 363.441 154.532 364.03 154.872C364.619 155.212 365.311 155.382 366.104 155.382C367.305 155.382 368.246 155.008 368.926 154.26C369.606 153.489 369.946 152.435 369.946 151.098V141.85H373.006V151.234C373.006 152.639 372.711 153.875 372.122 154.94C371.533 156.005 370.717 156.844 369.674 157.456C368.654 158.045 367.453 158.34 366.07 158.34ZM388.531 158V148.582C388.531 147.358 388.146 146.349 387.375 145.556C386.605 144.763 385.607 144.366 384.383 144.366C383.567 144.366 382.842 144.547 382.207 144.91C381.573 145.273 381.074 145.771 380.711 146.406C380.349 147.041 380.167 147.766 380.167 148.582L378.909 147.868C378.909 146.644 379.181 145.556 379.725 144.604C380.269 143.652 381.029 142.904 382.003 142.36C382.978 141.793 384.077 141.51 385.301 141.51C386.525 141.51 387.602 141.816 388.531 142.428C389.483 143.04 390.231 143.845 390.775 144.842C391.319 145.817 391.591 146.859 391.591 147.97V158H388.531ZM377.107 158V141.85H380.167V158H377.107ZM403.112 158.34C401.526 158.34 400.086 157.966 398.794 157.218C397.525 156.47 396.516 155.461 395.768 154.192C395.043 152.9 394.68 151.472 394.68 149.908C394.68 148.321 395.043 146.893 395.768 145.624C396.516 144.355 397.525 143.357 398.794 142.632C400.086 141.884 401.526 141.51 403.112 141.51C404.359 141.51 405.515 141.748 406.58 142.224C407.646 142.677 408.564 143.346 409.334 144.23L407.294 146.27C406.796 145.681 406.184 145.239 405.458 144.944C404.756 144.627 403.974 144.468 403.112 144.468C402.092 144.468 401.186 144.706 400.392 145.182C399.599 145.635 398.976 146.27 398.522 147.086C398.069 147.902 397.842 148.843 397.842 149.908C397.842 150.973 398.069 151.914 398.522 152.73C398.976 153.546 399.599 154.192 400.392 154.668C401.186 155.144 402.092 155.382 403.112 155.382C403.974 155.382 404.756 155.235 405.458 154.94C406.184 154.623 406.807 154.169 407.328 153.58L409.334 155.62C408.586 156.481 407.668 157.15 406.58 157.626C405.515 158.102 404.359 158.34 403.112 158.34ZM423.793 158V148.582C423.793 147.358 423.408 146.349 422.637 145.556C421.866 144.763 420.869 144.366 419.645 144.366C418.829 144.366 418.104 144.547 417.469 144.91C416.834 145.273 416.336 145.771 415.973 146.406C415.61 147.041 415.429 147.766 415.429 148.582L414.171 147.868C414.171 146.644 414.443 145.556 414.987 144.604C415.531 143.652 416.29 142.904 417.265 142.36C418.24 141.793 419.339 141.51 420.563 141.51C421.787 141.51 422.864 141.782 423.793 142.326C424.745 142.87 425.493 143.629 426.037 144.604C426.581 145.579 426.853 146.701 426.853 147.97V158H423.793ZM412.369 158V133.724H415.429V158H412.369Z" fill="white"/>
</svg>
